<?xml version="1.0" encoding="UTF-8" standalone="no"?>
<svg
   xmlns:dc="http://purl.org/dc/elements/1.1/"
   xmlns:cc="http://creativecommons.org/ns#"
   xmlns:rdf="http://www.w3.org/1999/02/22-rdf-syntax-ns#"
   xmlns:svg="http://www.w3.org/2000/svg"
   xmlns="http://www.w3.org/2000/svg"
   xmlns:sodipodi="http://sodipodi.sourceforge.net/DTD/sodipodi-0.dtd"
   xmlns:inkscape="http://www.inkscape.org/namespaces/inkscape"
   version="1.0"
   width="190.62354pt"
   height="66.082703pt"
   viewBox="0 0 190.62354 66.082703"
   preserveAspectRatio="xMidYMid meet"
   id="svg3803"
   sodipodi:docname="logo-complete.svg"
   inkscape:version="0.92.5 (2060ec1f9f, 2020-04-08)">
  <metadata
     id="metadata3809">
    <rdf:RDF>
      <cc:Work
         rdf:about="">
        <dc:format>image/svg+xml</dc:format>
        <dc:type
           rdf:resource="http://purl.org/dc/dcmitype/StillImage" />
        <dc:title></dc:title>
      </cc:Work>
    </rdf:RDF>
  </metadata>
  <defs
     id="defs3807" />
  <sodipodi:namedview
     pagecolor="#ffffff"
     bordercolor="#666666"
     borderopacity="1"
     objecttolerance="10"
     gridtolerance="10"
     guidetolerance="10"
     inkscape:pageopacity="0"
     inkscape:pageshadow="2"
     inkscape:window-width="1920"
     inkscape:window-height="1016"
     id="namedview3805"
     showgrid="false"
     inkscape:zoom="6.52125"
     inkscape:cx="128.83138"
     inkscape:cy="44.820733"
     inkscape:window-x="0"
     inkscape:window-y="27"
     inkscape:window-maximized="1"
     inkscape:current-layer="svg3803" />
  <g
     transform="matrix(0.1,0,0,-0.1,-3.376462,68.467156)"
     id="g3801"
     style="fill:#000000;stroke:none">
    <path
       d="M 246,679 C 107,660 59,606 39,448 25,335 40,194 73,131 104,70 161,41 275,28 c 105,-12 248,3 306,32 45,23 81,69 100,125 17,55 18,276 0,337 -20,69 -71,124 -131,142 -65,19 -218,27 -304,15 z M 485,519 c 4,-11 4,-31 1,-45 -5,-19 -13,-24 -36,-24 h -29 l -3,-122 -3,-123 h -50 -50 l -3,123 -3,122 h -28 c -17,0 -31,6 -35,16 -8,21 -8,59 1,67 3,4 57,7 119,7 105,0 113,-1 119,-21 z"
       style="fill:#2196f3"
       id="path3787"
       inkscape:connector-curvature="0" />
    <path
       d="m 870,470 c 0,-5 16,-10 35,-10 h 34 l 3,-92 c 2,-62 7,-93 16,-96 9,-3 12,20 12,92 v 96 h 41 c 24,0 38,4 34,10 -3,6 -44,10 -91,10 -49,0 -84,-4 -84,-10 z"
       style="fill:#2196f3"
       id="path3789"
       inkscape:connector-curvature="0" />
    <path
       d="m 1103,470 c -33,-14 -56,-66 -50,-114 10,-71 74,-105 140,-75 58,26 67,120 18,170 -30,30 -65,36 -108,19 z m 95,-34 c 8,-7 16,-32 19,-54 5,-34 1,-44 -20,-66 -53,-53 -117,-21 -117,58 0,36 5,48 27,66 29,22 66,21 91,-4 z"
       style="fill:#2196f3"
       id="path3791"
       inkscape:connector-curvature="0" />
    <path
       d="m 1297,473 c -4,-3 -7,-51 -7,-106 v -99 l 65,4 c 76,5 102,24 112,81 8,51 -13,96 -53,113 -35,15 -106,19 -117,7 z m 124,-39 c 23,-20 26,-90 6,-118 -8,-11 -31,-20 -60,-23 l -47,-6 v 88 88 l 41,-6 c 22,-3 49,-13 60,-23 z"
       style="fill:#2196f3"
       id="path3793"
       inkscape:connector-curvature="0" />
    <path
       d="m 1539,451 c -24,-25 -29,-37 -29,-78 1,-51 12,-73 47,-91 59,-32 129,3 140,70 16,103 -89,168 -158,99 z m 105,-12 c 21,-17 26,-29 26,-65 0,-72 -54,-106 -107,-69 -44,31 -38,126 9,145 34,13 43,12 72,-11 z"
       style="fill:#2196f3"
       id="path3795"
       inkscape:connector-curvature="0" />
    <path
       d="m 1730,470 c 0,-5 25,-10 55,-10 30,0 55,-4 55,-10 0,-5 -25,-44 -55,-86 -30,-42 -55,-81 -55,-85 0,-5 37,-9 82,-9 93,0 98,17 6,22 l -56,3 59,80 c 32,44 58,86 59,93 0,8 -21,12 -75,12 -43,0 -75,-4 -75,-10 z"
       style="fill:#2196f3"
       id="path3797"
       inkscape:connector-curvature="0" />
    <path
       d="m 1920,375 c 0,-63 4,-105 10,-105 6,0 10,42 10,105 0,63 -4,105 -10,105 -6,0 -10,-42 -10,-105 z"
       style="fill:#2196f3"
       id="path3799"
       inkscape:connector-curvature="0" />
  </g>
</svg>
